Coordinates
version=1
nRows=9
nColumns=24
inDegrees=yes

Units are S.I. units (second, meters, Newtons, ...)
Angles are in degrees.

endheader
time	pelvis_tilt	pelvis_list	pelvis_rotation	pelvis_tx	pelvis_ty	pelvis_tz	hip_flexion_r	hip_adduction_r	hip_rotation_r	knee_angle_r	ankle_angle_r	subtalar_angle_r	mtp_angle_r	hip_flexion_l	hip_adduction_l	hip_rotation_l	knee_angle_l	ankle_angle_l	subtalar_angle_l	mtp_angle_l	lumbar_extension	lumbar_bending	lumbar_rotation
      1.09150000	     -5.38453019	      3.70414470	     -4.94054514	      0.34613482	      1.06090352	      0.32489124	     20.23045526	     -6.68727414	     -3.82176300	    -71.44344461	     -1.75640364	     -8.16757695	      9.01246129	     14.67721175	      5.45616399	      1.87877537	    -15.60903198	      6.47788313	     -3.56411553	      3.09809747	    -12.60491714	     -5.73619661	     -0.38283993
      1.09566667	     -5.32410104	      3.57280093	     -4.88028849	      0.35149138	      1.06204196	      0.32470712	     20.68008231	     -6.52832394	     -3.95914041	    -71.17906791	     -1.39267454	     -8.05416217	      8.97859271	     14.04500281	      5.36913447	      2.03604098	    -15.11392441	      6.46676826	     -3.60316607	      3.09526651	    -12.68263845	     -5.54229382	     -0.54846140
      1.09983333	     -5.29620935	      3.45689640	     -4.81203944	      0.35684550	      1.06306805	      0.32451754	     21.16101992	     -6.38416061	     -4.09759332	    -70.87819561	     -1.00592915	     -7.86565523	      8.95775184	     13.44978344	      5.29620748	      2.20853456	    -14.61732885	      6.44354832	     -3.66649346	      3.09202190	    -12.71977791	     -5.35894200	     -0.72974507
      1.10400000	     -5.22114532	      3.33415014	     -4.73919876	      0.36218599	      1.06415106	      0.32432824	     21.57550807	     -6.23683728	     -4.24560593	    -70.51786111	     -0.61794578	     -7.65259008	      8.94551881	     12.79848456	      5.21905780	      2.38959452	    -14.10644239	      6.40788545	     -3.74109853	      3.08841862	    -12.81616897	     -5.17308030	     -0.91810436
      1.10816667	     -5.18650632	      3.21245480	     -4.65501647	      0.36752394	      1.06512181	      0.32413517	     22.02401868	     -6.08603474	     -4.39976198	    -70.11380459	     -0.21793930	     -7.41502397	      8.94294853	     12.19179763	      5.13872426	      2.59476777	    -13.59455435	      6.33590358	     -3.84510251	      3.08325493	    -12.86773459	     -4.98596498	     -1.12273504
      1.11233333	     -5.15786536	      3.07891117	     -4.56819631	      0.37284395	      1.06603349	      0.32394265	     22.46793653	     -5.92033835	     -4.55668754	    -69.65901992	      0.16260392	     -7.11309517	      8.95568137	     11.60684297	      5.04065101	      2.77148570	    -13.11734476	      6.34204320	     -3.86936402	      3.08134715	    -12.92463897	     -4.78046300	     -1.25356699
      1.11650000	     -5.09964228	      2.97229130	     -4.47596470	      0.37817723	      1.06693528	      0.32374470	     22.87318344	     -5.79349082	     -4.72106510	    -69.17002487	      0.58056006	     -6.79835786	      8.98314347	     10.97084874	      4.97637616	      2.99515552	    -12.58943154	      6.25725282	     -4.01424419	      3.07486270	    -12.98797021	     -4.59899678	     -1.49390411
      1.12066667	     -5.04051281	      2.84300534	     -4.37675705	      0.38348934	      1.06780977	      0.32353444	     23.26056147	     -5.64145582	     -4.89552892	    -68.62169949	      0.97286604	     -6.44744816	      9.01788250	     10.34904715	      4.88407587	      3.19569978	    -12.09568757	      6.24059143	     -4.08691690	      3.07117651	    -13.06823266	     -4.38986267	     -1.66193207
      1.12483333	     -4.98244998	      2.72256016	     -4.28052584	      0.38879792	      1.06862408	      0.32334977	     23.64279075	     -5.49552002	     -5.06371016	    -68.03626337	      1.35962840	     -6.08334403	      9.05869064	      9.73021519	      4.79662487	      3.39831556	    -11.60566677	      6.22362870	     -4.16523616	      3.06715899	    -13.14613422	     -4.20033901	     -1.83569489
